<svg width="20" height="21" viewBox="0 0 20 21" fill="none" xmlns="http://www.w3.org/2000/svg">
<path d="M10 20.2661C4.477 20.2661 0 15.7891 0 10.2661C0 4.74311 4.477 0.266113 10 0.266113C15.523 0.266113 20 4.74311 20 10.2661C20 15.7891 15.523 20.2661 10 20.2661ZM10 18.2661C12.1217 18.2661 14.1566 17.4233 15.6569 15.923C17.1571 14.4227 18 12.3878 18 10.2661C18 8.14438 17.1571 6.10955 15.6569 4.60926C14.1566 3.10897 12.1217 2.26611 10 2.26611C7.87827 2.26611 5.84344 3.10897 4.34315 4.60926C2.84285 6.10955 2 8.14438 2 10.2661C2 12.3878 2.84285 14.4227 4.34315 15.923C5.84344 17.4233 7.87827 18.2661 10 18.2661ZM14.126 12.0121L10.071 14.9101C9.166 15.5561 7.941 15.2991 7.334 14.3341C7.11494 13.9832 6.99918 13.5777 7 13.1641V7.36811C7 6.20811 7.883 5.26611 8.972 5.26611C9.363 5.26611 9.746 5.39011 10.071 5.62211L14.126 8.52011C15.031 9.16711 15.272 10.4721 14.666 11.4371C14.5251 11.6621 14.3417 11.8574 14.126 12.0121ZM8.972 7.36811V13.1641L13.027 10.2661L8.972 7.36811Z" fill="#2563EB"/>
</svg>
